<?xml version="1.0" standalone="no"?>
<!DOCTYPE svg PUBLIC "-//W3C//DTD SVG 20010904//EN"
 "http://www.w3.org/TR/2001/REC-SVG-20010904/DTD/svg10.dtd">
<svg version="1.0" xmlns="http://www.w3.org/2000/svg"
 width="96.000000pt" height="96.000000pt" viewBox="0 0 96.000000 96.000000"
 preserveAspectRatio="xMidYMid meet">

<g transform="translate(0.000000,96.000000) scale(0.100000,-0.100000)"
fill="#000000" stroke="none">
<path d="M588 904 c-26 -8 -50 -18 -53 -23 -3 -5 -19 -2 -36 6 -32 16 -97 12
-108 -6 -4 -5 -22 -67 -40 -138 -18 -70 -36 -131 -40 -136 -4 -4 -23 53 -42
125 -18 73 -42 141 -52 150 -19 20 -53 23 -91 8 l-26 -9 0 -402 c0 -415 2
-429 41 -429 37 0 49 27 49 111 l0 79 28 0 c45 -1 70 -22 125 -106 41 -62 58
-80 79 -82 19 -2 30 3 38 18 9 17 6 30 -16 71 -16 28 -42 63 -60 79 l-33 28
29 12 c51 21 75 56 75 110 0 52 -25 90 -75 113 l-25 12 42 160 41 160 1 -150
c1 -82 4 -160 7 -172 11 -41 60 -39 70 2 5 22 7 22 32 9 15 -8 41 -19 57 -25
l30 -11 -39 -13 c-92 -32 -137 -101 -137 -208 0 -121 53 -196 154 -217 90 -18
168 9 207 73 27 43 26 84 0 92 -23 7 -50 -10 -50 -32 0 -8 -13 -28 -29 -44
-25 -24 -38 -29 -78 -29 -83 0 -123 49 -123 150 0 99 48 160 125 160 46 0 89
-26 100 -60 9 -29 42 -45 61 -29 40 33 -16 120 -93 142 l-45 13 55 13 c31 7
71 22 89 34 31 22 33 26 36 91 2 41 -2 73 -9 82 -17 20 -162 20 -179 -1 -21
-26 5 -45 61 -45 l49 0 0 -35 c0 -41 -18 -53 -88 -62 -62 -7 -115 15 -137 57
-45 87 -20 206 49 235 68 28 110 17 162 -43 29 -34 33 -35 58 -24 37 17 35 55
-7 97 -54 54 -144 68 -239 39z m-364 -261 c20 -78 36 -144 36 -147 0 -4 -20
-6 -45 -6 l-45 0 0 163 c0 101 4 156 10 147 5 -9 25 -80 44 -157z m126 -235
c27 -30 25 -62 -6 -87 -21 -16 -41 -21 -90 -21 l-64 0 0 65 0 65 70 0 c58 0
72 -3 90 -22z"/>
</g>
</svg>
